<svg xmlns="http://www.w3.org/2000/svg" viewBox="0 0 71.89 100"><defs><style>.cls-1{fill:#14202a;}</style></defs><g id="Layer_2" data-name="Layer 2"><g id="Layer_2-2" data-name="Layer 2"><path class="cls-1" d="M57.46,46.3A28.73,28.73,0,0,0,34.71,0H1.5A1.5,1.5,0,0,0,0,1.5v12A1.5,1.5,0,0,0,1.5,15H34.71a13.74,13.74,0,0,1,.66,27.47H28.72a1.46,1.46,0,0,0-.22,0H1.5A1.5,1.5,0,0,0,0,43.94v12a1.5,1.5,0,0,0,1.5,1.5H25.86v0h.43v0h8.42c.44,0,.88,0,1.31,0h7.12a13.75,13.75,0,0,1,0,27.5H26.36v0H1.5A1.5,1.5,0,0,0,0,86.5v12A1.5,1.5,0,0,0,1.5,100h27a1.55,1.55,0,0,0,.31,0H43.14A28.74,28.74,0,0,0,57.46,46.3Z"/></g></g></svg>