<svg xmlns="http://www.w3.org/2000/svg" viewBox="0 0 74.51 99.96"><defs><style>.cls-1{fill:#14202a;}</style></defs><g id="Layer_2" data-name="Layer 2"><g id="Layer_2-2" data-name="Layer 2"><path class="cls-1" d="M35.83,0H1.5A1.5,1.5,0,0,0,0,1.5V41a1.5,1.5,0,0,0,1.5,1.5h12A1.5,1.5,0,0,0,15,41V15H35.83A23.7,23.7,0,0,1,59.51,38.68v22.6A23.7,23.7,0,0,1,35.83,85H15V59a1.5,1.5,0,0,0-1.5-1.5H1.5A1.5,1.5,0,0,0,0,59V98.45H0a1.48,1.48,0,0,0,.44,1.05h0a1.2,1.2,0,0,0,.21.17h0a1.55,1.55,0,0,0,.88.27H35.83A38.72,38.72,0,0,0,74.51,61.28V38.68A38.72,38.72,0,0,0,35.83,0Z"/></g></g></svg>