<svg xmlns="http://www.w3.org/2000/svg" viewBox="0 0 80.13 99.96"><defs><style>.cls-1{fill:#14202a;}</style></defs><g id="Layer_2" data-name="Layer 2"><g id="Layer_2-2" data-name="Layer 2"><path class="cls-1" d="M78.59,42.44H50.83a1.53,1.53,0,0,0-1.55,1.5v12a1.52,1.52,0,0,0,1.55,1.5h14.3V85H42.47A27.5,27.5,0,0,1,15,57.49v-15A27.5,27.5,0,0,1,42.47,15H63.59a1.5,1.5,0,0,0,1.5-1.5V1.5A1.5,1.5,0,0,0,63.59,0H42.47A42.52,42.52,0,0,0,0,42.47v15A42.52,42.52,0,0,0,42.47,100H78.63a1.62,1.62,0,0,0,1.5-1.72V43.94A1.53,1.53,0,0,0,78.59,42.44Z"/></g></g></svg>