<svg xmlns="http://www.w3.org/2000/svg" viewBox="0 0 100 100"><defs><style>.cls-1{fill:#14202a;}</style></defs><g id="Layer_2" data-name="Layer 2"><g id="Layer_2-2" data-name="Layer 2"><rect class="cls-1" x="85" width="15" height="100" rx="1.5"/><path class="cls-1" d="M68.5,42.62H30V1.5A1.5,1.5,0,0,0,28.5,0h-12A1.5,1.5,0,0,0,15,1.5V42.62H1.5A1.5,1.5,0,0,0,0,44.12v12a1.5,1.5,0,0,0,1.5,1.5H15V98.5a1.5,1.5,0,0,0,1.5,1.5h12A1.5,1.5,0,0,0,30,98.5V57.62H68.5a1.5,1.5,0,0,0,1.5-1.5v-12A1.5,1.5,0,0,0,68.5,42.62Z"/></g></g></svg>