<svg xmlns="http://www.w3.org/2000/svg" viewBox="0 0 70.73 100.24"><defs><style>.cls-1{fill:#14202a;}</style></defs><g id="Layer_2" data-name="Layer 2"><g id="Layer_2-2" data-name="Layer 2"><path class="cls-1" d="M70.51,98,31,44.91,60.21,2.33A1.49,1.49,0,0,0,58.94,0H45.47A1.49,1.49,0,0,0,44.2.75L15.59,42.49H15V1.5A1.5,1.5,0,0,0,13.5,0H1.5A1.5,1.5,0,0,0,0,1.5v97A1.5,1.5,0,0,0,1.5,100h12A1.5,1.5,0,0,0,15,98.5v-41h8.2L54.49,99.54a1.48,1.48,0,0,0,1.27.7H69.23A1.5,1.5,0,0,0,70.51,98Z"/></g></g></svg>