<svg xmlns="http://www.w3.org/2000/svg" viewBox="0 0 92.42 100"><defs><style>.cls-1{fill:#14202a;}</style></defs><g id="Layer_2" data-name="Layer 2"><g id="Layer_2-2" data-name="Layer 2"><rect class="cls-1" x="77.42" y="57" width="15" height="43" rx="1.5"/><path class="cls-1" d="M90.92,0h-12a1.5,1.5,0,0,0-1.4,1h0L38.89,70.46a1.49,1.49,0,0,0,1.27,2.29H52.63A1.49,1.49,0,0,0,53.9,72L77.42,28.68V41.5a1.5,1.5,0,0,0,1.5,1.5h12a1.5,1.5,0,0,0,1.5-1.5V1.5A1.5,1.5,0,0,0,90.92,0Z"/><path class="cls-1" d="M53.55,70.15,46.14,57.52H32.75a1.49,1.49,0,0,0-1.29,2.26l7.08,12a1.48,1.48,0,0,0,1.27.7H52.28A1.5,1.5,0,0,0,53.55,70.15Z"/><path class="cls-1" d="M36.87,40.28,15,1.18A.76.76,0,0,0,14.92,1,1.5,1.5,0,0,0,13.5,0H1.5A1.5,1.5,0,0,0,0,1.5v97A1.5,1.5,0,0,0,1.5,100h12A1.5,1.5,0,0,0,15,98.5V32l5.8,9.79a1.49,1.49,0,0,0,1.29.74H35.56A1.5,1.5,0,0,0,36.87,40.28Z"/></g></g></svg>