<svg xmlns="http://www.w3.org/2000/svg" viewBox="0 0 81 100"><defs><style>.cls-1{fill:#14202a;}</style></defs><g id="Layer_2" data-name="Layer 2"><g id="Layer_2-2" data-name="Layer 2"><path class="cls-1" d="M79.5,0h-12A1.5,1.5,0,0,0,66,1.5V76.62L54.56,58.21a1.52,1.52,0,0,0-1.28-.71H39.82a1.51,1.51,0,0,0-1.28,2.3L63.06,99.24a1.5,1.5,0,0,0,1.27.71h2.8a1.5,1.5,0,0,0,.37,0h12A1.5,1.5,0,0,0,81,98.5V1.5A1.5,1.5,0,0,0,79.5,0Z"/><path class="cls-1" d="M42.46,40.19,17.94.75A1.5,1.5,0,0,0,16.67,0H13.83a1.66,1.66,0,0,0-.33,0H1.5A1.5,1.5,0,0,0,0,1.5v97A1.5,1.5,0,0,0,1.5,100h12A1.5,1.5,0,0,0,15,98.5V23.37L26.44,41.78a1.52,1.52,0,0,0,1.28.71H41.18A1.51,1.51,0,0,0,42.46,40.19Z"/></g></g></svg>