<svg xmlns="http://www.w3.org/2000/svg" viewBox="0 0 93.73 103"><defs><style>.cls-1{fill:#14202a;}</style></defs><g id="Layer_2" data-name="Layer 2"><g id="Layer_2-2" data-name="Layer 2"><path class="cls-1" d="M92.22,59H80.06a1.51,1.51,0,0,0-1.48,1.25,40.13,40.13,0,0,1-1.88,6.87A32.07,32.07,0,0,1,65,82.54,31.6,31.6,0,0,1,46.87,88,32.43,32.43,0,0,1,34.2,85.51,30.3,30.3,0,0,1,20.07,73.35a37.2,37.2,0,0,1-4.9-13.07A1.52,1.52,0,0,0,13.69,59H1.52A1.5,1.5,0,0,0,0,60.74,56.55,56.55,0,0,0,3,72.43,47.08,47.08,0,0,0,20.24,94.89,46.64,46.64,0,0,0,46.87,103a47.55,47.55,0,0,0,18.47-3.66A45.46,45.46,0,0,0,86.41,81.27a53.2,53.2,0,0,0,7.3-20.53A1.5,1.5,0,0,0,92.22,59Z"/><path class="cls-1" d="M1.51,44H13.66a1.51,1.51,0,0,0,1.48-1.25A40.81,40.81,0,0,1,17,35.84,32,32,0,0,1,28.76,20.46,31.58,31.58,0,0,1,46.87,15a32.59,32.59,0,0,1,12.66,2.48A30.41,30.41,0,0,1,73.66,29.64a37.46,37.46,0,0,1,4.92,13.15A1.5,1.5,0,0,0,80.05,44H92.22a1.5,1.5,0,0,0,1.49-1.7,55.3,55.3,0,0,0-3-11.77A47,47,0,0,0,73.49,8.11,46.58,46.58,0,0,0,46.87,0,47.78,47.78,0,0,0,28.39,3.65,45.47,45.47,0,0,0,7.33,21.73,53,53,0,0,0,0,42.34,1.5,1.5,0,0,0,1.51,44Z"/></g></g></svg>