<?xml version="1.0" encoding="UTF-8"?><svg id="Layer_2" xmlns="http://www.w3.org/2000/svg" viewBox="0 0 93.73 103"><defs><style>.cls-1{fill:#14202a;}</style></defs><g id="Layer_2-2"><g><path class="cls-1" d="M92.22,59.04h-12.16c-.73,0-1.34,.53-1.48,1.25-.45,2.45-1.08,4.75-1.88,6.87-1.21,3.2-2.77,6.03-4.63,8.5l-9.58-15.42c-.27-.44-.76-.71-1.27-.71h-13.47c-1.18,0-1.9,1.29-1.27,2.29l14.36,23.1c-4.18,1.99-8.88,3.07-13.97,3.07-4.57,0-8.82-.87-12.66-2.48-5.76-2.43-10.61-6.51-14.13-12.16-2.28-3.67-3.98-8.03-4.9-13.07-.13-.72-.74-1.25-1.47-1.25H1.52c-.91,0-1.62,.8-1.49,1.7,.6,4.12,1.59,8.03,2.96,11.69,3.53,9.44,9.58,17.18,17.25,22.46,7.66,5.29,16.9,8.12,26.62,8.11,6.48,0,12.75-1.25,18.48-3.66,1.17-.49,2.32-1.04,3.45-1.62l2.21,3.55c.27,.44,.76,.71,1.27,.71h13.47c1.18,0,1.9-1.29,1.27-2.29l-6.63-10.67c2.25-2.33,4.27-4.92,6.03-7.75,3.69-5.93,6.19-12.86,7.3-20.53,.13-.9-.58-1.7-1.49-1.7Z"/><path class="cls-1" d="M1.51,44.04H13.66c.73,0,1.35-.53,1.48-1.25,.45-2.48,1.09-4.8,1.89-6.94,2.54-6.74,6.63-11.86,11.73-15.38,5.1-3.51,11.26-5.45,18.11-5.46,4.56,0,8.82,.87,12.66,2.48,5.76,2.43,10.61,6.51,14.13,12.16,2.29,3.68,3.99,8.08,4.92,13.14,.13,.72,.74,1.25,1.47,1.25h12.17c.91,0,1.62-.8,1.49-1.7-.59-4.15-1.59-8.09-2.97-11.77-3.53-9.44-9.58-17.18-17.25-22.46C65.83,2.82,56.59,0,46.87,0c-6.48,0-12.75,1.25-18.48,3.65C19.79,7.26,12.43,13.5,7.33,21.73,3.63,27.67,1.12,34.64,.02,42.34c-.13,.9,.59,1.7,1.49,1.7Z"/></g></g></svg>