<svg xmlns="http://www.w3.org/2000/svg" viewBox="0 0 80.09 100"><defs><style>.cls-1{fill:#14202a;}</style></defs><g id="Layer_2" data-name="Layer 2"><g id="Layer_2-2" data-name="Layer 2"><path class="cls-1" d="M73.9,56.52a36.18,36.18,0,0,0,6.19-20.27h0A36.26,36.26,0,0,0,43.84,0H1.5A1.5,1.5,0,0,0,0,1.5v12A1.5,1.5,0,0,0,1.5,15H43.84a21,21,0,0,1,8.27,1.67,21.41,21.41,0,0,1,9.36,7.7,21.1,21.1,0,0,1,3.62,11.88h0a21,21,0,0,1-1.67,8.27,21.41,21.41,0,0,1-7.7,9.36A21.1,21.1,0,0,1,43.84,57.5H13.74v0l-.24,0H1.5A1.5,1.5,0,0,0,0,59V98.5A1.5,1.5,0,0,0,1.5,100h12A1.5,1.5,0,0,0,15,98.5v-26H43.84a36.2,36.2,0,0,0,7.47-.78L63.5,99.11a1.5,1.5,0,0,0,1.37.89H78.59A1.5,1.5,0,0,0,80,97.89l-14.25-32a1.41,1.41,0,0,0-.36-.48A36.3,36.3,0,0,0,73.9,56.52Z"/></g></g></svg>