<svg xmlns="http://www.w3.org/2000/svg" viewBox="0 0 79.95 100"><defs><style>.cls-1{fill:#14202a;}</style></defs><g id="Layer_2" data-name="Layer 2"><g id="Layer_2-2" data-name="Layer 2"><path class="cls-1" d="M64.26,51,26.4,35.19a10.49,10.49,0,0,1-6.46-9.68h0a10.41,10.41,0,0,1,.82-4.09,10.54,10.54,0,0,1,3.81-4.62A10.44,10.44,0,0,1,30.44,15H66a1.5,1.5,0,0,0,1.5-1.5V1.5A1.5,1.5,0,0,0,66,0H30.44A25.5,25.5,0,0,0,4.94,25.5v0h0A25.49,25.49,0,0,0,20.63,49L58.49,64.81A10.5,10.5,0,0,1,65,74.5h0A10.49,10.49,0,0,1,54.46,85h-29a10.36,10.36,0,0,1-4.08-.82,10.52,10.52,0,0,1-4.63-3.81A10.38,10.38,0,0,1,15,75.84a1.51,1.51,0,0,0-1.49-1.34H1.5A1.52,1.52,0,0,0,0,76.12,25.5,25.5,0,0,0,25.45,100h29A25.5,25.5,0,0,0,80,74.5h0A25.5,25.5,0,0,0,64.26,51Z"/></g></g></svg>