<svg xmlns="http://www.w3.org/2000/svg" viewBox="0 0 78.03 101.57"><defs><style>.cls-1{fill:#14202a;}</style></defs><g id="Layer_2" data-name="Layer 2"><g id="Layer_2-2" data-name="Layer 2"><path class="cls-1" d="M78,1.5A1.5,1.5,0,0,0,76.53,0h-12A1.5,1.5,0,0,0,63,1.5V18.33a1.36,1.36,0,0,0,0,.29v46c0,11.13-11.91,22-24,22S15,75.71,15,64.58v-46a1.27,1.27,0,0,0,0-.28V1.5A1.5,1.5,0,0,0,13.5,0H1.5A1.5,1.5,0,0,0,0,1.5V18.33a1.36,1.36,0,0,0,0,.29v46c0,19.36,18.58,37,39,37s39-17.63,39-37v-46a1.43,1.43,0,0,0,0-.29Z"/></g></g></svg>