<svg xmlns="http://www.w3.org/2000/svg" viewBox="0 0 78.57 100"><defs><style>.cls-1{fill:#14202a;}</style></defs><g id="Layer_2" data-name="Layer 2"><g id="Layer_2-2" data-name="Layer 2"><path class="cls-1" d="M77.07,0H63.17a1.52,1.52,0,0,0-1.45,1.11L39.28,84.56l-7-26a1.5,1.5,0,0,0-1.44-1.11H17a1.51,1.51,0,0,0-1.45,1.89L26.14,98.89A1.5,1.5,0,0,0,27.58,100H51a1.5,1.5,0,0,0,1.45-1.11l26.09-97A1.51,1.51,0,0,0,77.07,0Z"/><path class="cls-1" d="M27.45,40.57,16.84,1.11A1.5,1.5,0,0,0,15.39,0H1.5A1.5,1.5,0,0,0,.05,1.89L10.66,41.35a1.5,1.5,0,0,0,1.45,1.11H26A1.49,1.49,0,0,0,27.45,40.57Z"/></g></g></svg>