<svg xmlns="http://www.w3.org/2000/svg" viewBox="0 0 131.03 100"><defs><style>.cls-1{fill:#14202a;}</style></defs><g id="Layer_2" data-name="Layer 2"><g id="Layer_2-2" data-name="Layer 2"><path class="cls-1" d="M129.53,0H115.64a1.5,1.5,0,0,0-1.45,1.11L94.26,75.21,89.79,58.57a1.51,1.51,0,0,0-1.45-1.11H74.45A1.5,1.5,0,0,0,73,59.35L83.63,98.89A1.51,1.51,0,0,0,85.08,100h18.37a1.52,1.52,0,0,0,1.45-1.11L131,1.89A1.5,1.5,0,0,0,129.53,0Z"/><path class="cls-1" d="M27.45,40.57,16.84,1.11A1.5,1.5,0,0,0,15.39,0H1.5A1.5,1.5,0,0,0,.05,1.89L10.66,41.35a1.5,1.5,0,0,0,1.45,1.11H26A1.49,1.49,0,0,0,27.45,40.57Z"/><path class="cls-1" d="M85,40.57,74.34,1.11A1.51,1.51,0,0,0,72.89,0H58.67a1.51,1.51,0,0,0-1.45,1.11L37,76.19,32.29,58.57a1.5,1.5,0,0,0-1.44-1.11H17a1.51,1.51,0,0,0-1.45,1.89L26.14,98.89A1.5,1.5,0,0,0,27.58,100h18.9a1.51,1.51,0,0,0,1.45-1.11L65.78,32.51l2.38,8.84a1.5,1.5,0,0,0,1.45,1.11H83.5A1.5,1.5,0,0,0,85,40.57Z"/></g></g></svg>