<svg xmlns="http://www.w3.org/2000/svg" viewBox="0 0 77.61 99.91"><defs><style>.cls-1{fill:#14202a;}</style></defs><g id="Layer_2" data-name="Layer 2"><g id="Layer_2-2" data-name="Layer 2"><path class="cls-1" d="M24.75,41.74a1.48,1.48,0,0,0,1.27.7H51.59a1.48,1.48,0,0,0,1.27-.7L77.38,2.29A1.5,1.5,0,0,0,76.11,0H62.64a1.52,1.52,0,0,0-1.28.71L38.8,37,16.24.71A1.49,1.49,0,0,0,15,0H1.5A1.5,1.5,0,0,0,.23,2.29Z"/><path class="cls-1" d="M52.86,58.17a1.49,1.49,0,0,0-1.27-.71H26a1.49,1.49,0,0,0-1.27.71L.23,97.62A1.5,1.5,0,0,0,1.5,99.91H15a1.49,1.49,0,0,0,1.27-.71L38.8,62.9,61.36,99.2a1.52,1.52,0,0,0,1.28.71H76.11a1.5,1.5,0,0,0,1.27-2.29Z"/></g></g></svg>