<svg xmlns="http://www.w3.org/2000/svg" viewBox="0 0 77.61 100.02"><defs><style>.cls-1{fill:#14202a;}</style></defs><g id="Layer_2" data-name="Layer 2"><g id="Layer_2-2" data-name="Layer 2"><rect class="cls-1" x="31.75" y="57.48" width="15" height="42.54" rx="1.5"/><path class="cls-1" d="M76.11,0H62.64a1.52,1.52,0,0,0-1.28.71L38.8,37,16.24.71A1.49,1.49,0,0,0,15,0H1.5A1.5,1.5,0,0,0,.23,2.29L24.75,41.74a1.48,1.48,0,0,0,1.27.7H51.59a1.48,1.48,0,0,0,1.27-.7L77.38,2.29A1.5,1.5,0,0,0,76.11,0Z"/></g></g></svg>