<svg xmlns="http://www.w3.org/2000/svg" viewBox="0 0 80 100"><defs><style>.cls-1{fill:#14202a;}</style></defs><g id="Layer_2" data-name="Layer 2"><g id="Layer_2-2" data-name="Layer 2"><path class="cls-1" d="M78.5,0H6.5A1.5,1.5,0,0,0,5,1.5v12A1.5,1.5,0,0,0,6.5,15H57.71L37.79,40.42a1.3,1.3,0,0,0,1,2.1H54a3,3,0,0,0,2.36-1.15L79.36,12A3,3,0,0,0,80,10.1V1.5A1.5,1.5,0,0,0,78.5,0Z"/><path class="cls-1" d="M78.5,85H22.12L42,59.62a1.3,1.3,0,0,0-1-2.1H25.85a3,3,0,0,0-2.36,1.15L.64,87.82A3,3,0,0,0,0,89.67V98.5A1.5,1.5,0,0,0,1.5,100h77A1.5,1.5,0,0,0,80,98.5v-12A1.5,1.5,0,0,0,78.5,85Z"/></g></g></svg>