<svg xmlns="http://www.w3.org/2000/svg" viewBox="0 0 105 100"><rect shape-rendering="geometricPrecision"/><g id="Layer_2" data-name="Layer 2"><g id="Layer_2-2" data-name="Layer 2"><path d="M105,55.94v-12a1.5,1.5,0,0,0-1.5-1.5H80.18L61.81,1.19A2,2,0,0,0,60,0H45a2,2,0,0,0-1.82,1.19L24.82,42.44H1.5A1.5,1.5,0,0,0,0,43.94v12a1.5,1.5,0,0,0,1.5,1.5H18.14L.13,97.89A1.5,1.5,0,0,0,1.5,100H14.89a2,2,0,0,0,1.83-1.19L52.5,18.45,88.28,98.81A2,2,0,0,0,90.11,100H103.5a1.5,1.5,0,0,0,1.37-2.11l-18-40.45H103.5A1.5,1.5,0,0,0,105,55.94Z"/></g></g></svg>